# xmcd
#
# Track frame offsets:
#	150
#	10142
#	25043
#	43602
#	49453
#	74528
#	91426
#	101159
#	108432
#	126220
#	140052
#	159589
#
# Disc length: 2282 seconds
#
# Revision: 1
# Processed by: cddbd v1.5.2PL0 Copyright (c) Steve Scherf et al.
# Submitted via: audiograbber 1.83.01
#
DISCID=a908e80c
DTITLE=PAPER PLANE FLIGHT RECORDER [2012] - LOGOUT
DYEAR=1900
DGENRE=
TTITLE0=DEPARTURE
TTITLE1=WHERE IT GOES
TTITLE2=WINTER AND SUMMER
TTITLE3=INTERLUDE I (REQUIEM)
TTITLE4=IN THE SEA OF LONELY SOULS
TTITLE5=ELLIOTT DAYS
TTITLE6=SONG OF THE SELFLESS
TTITLE7=INTERLUDE 2 (PAPER PLANES)
TTITLE8=ESTABLISHMENT
TTITLE9=AN INSIDE JOKE
TTITLE10=IN A SUNDAY MORNING
TTITLE11=LANDING
EXTD=
EXTT0=
EXTT1=
EXTT2=
EXTT3=
EXTT4=
EXTT5=
EXTT6=
EXTT7=
EXTT8=
EXTT9=
EXTT10=
EXTT11=
PLAYORDER=
